<svg width="92" height="92" fill="none" xmlns="http://www.w3.org/2000/svg"><path d="M33.708 15.459c-4.521 6.671-19.586 11.366-22.071 10.625v-.023a35.098 35.098 0 0111.036-12.894 33.216 33.216 0 012.887-1.864c2.105-1.213 4.253-1.28 4.97-1.303 6.715.112 3.223 5.391 3.178 5.459zm-3.805 49.959c.336 2.179 0 10.85-.448 11.569-.403.022-1.208.067-3.559-1.236A37.595 37.595 0 018.928 55.309a36.466 36.466 0 01.403-24.53c2.686 3.55 5.82 6.761 8.462 10.333 2.53 3.437 5.999 8.985 6.715 10.176 4.365 7.39 5.06 11.928 5.395 14.13zM83 43.988c0 4.74-.94 9.277-2.619 13.433-4.477 4.605-34.518-6.762-34.809-6.897-4.118-1.73-16.632-7.03-17.75-15.32-1.635-11.95 23.503-20.285 34.54-20.599 1.342.022 5.372.067 7.7 1.91a35.812 35.812 0 019.515 12.291A35.934 35.934 0 0183 43.987zM63.525 76.334c-3.134 1.505-6.603.404-5.708-2.785 1.724-6.11 16.789-12.378 20.102-12.715.425-.045.582.225.403.584a37.36 37.36 0 01-14.797 14.894" fill="#fff"/></svg>